<?xml version="1.0" standalone="no"?>
<!DOCTYPE svg PUBLIC "-//W3C//DTD SVG 1.1//EN" "http://www.w3.org/Graphics/SVG/1.1/DTD/svg11.dtd">
<svg xmlns="http://www.w3.org/2000/svg">
<metadata>Generated by Fontastic.me</metadata>
<defs>
<font id="font-sramic" horiz-adv-x="512">
<font-face font-family="font-sramic" units-per-em="512" ascent="480" descent="-32"/>
<missing-glyph horiz-adv-x="512" />

<glyph glyph-name="american" unicode="&#97;" d="M338 183l43 0 0 11-30 0 0 11 29 0 0 10-29 0 0 10 30 0 0 12-43 0z m126 33c0 0-8 0-9 0-3 0-5 1-5 4 0 5 5 5 9 5l21 0 0 11-28 0c-9 0-16-5-16-15 0-9 3-16 18-17 1 0 8 0 9 0 4-1 5-2 5-5 0-5-5-5-9-5l-22 0 0-12 28 0c9 0 17 6 17 16 0 9-1 17-18 18z m-49 0c-1 0-8 0-10 0-3 0-5 1-5 4 0 5 5 5 9 5l21 0 0 11-28 0c-9 0-16-5-16-15 0-9 4-16 18-17 1 0 8 0 10 0 3-1 4-2 4-5 0-5-5-5-9-5l-21 0 0-12 27 0c9 0 17 6 17 16 0 9-1 17-17 18z m-157 20l-47 0-15-16-14 17-52 0 0-54 50 0 16 17 15-17 26 0 0 18 18 0c6 0 19 0 19 19 0 13-10 16-16 16z m-85-42l-30 0 0 11 29 0 0 10-29 0 0 10 32 0 13-15z m51-6l-19 22 19 21z m29 24l-16 0 0 13 16 0c6 0 8-4 8-6 0-4-2-7-8-7z m78 10c0 12-9 14-16 14l-34 0 0-53 13 0 0 19 17 0c5 0 7-5 7-10l0-9 13 0-1 11c0 8-2 12-8 13 7 4 9 9 9 15z m-21-9l-16 0 0 12 16 0c6 0 8-4 8-6 0-4-2-6-8-6z m-24 117l13 0 0-54-13 0z m-65-43l-30 0 0 11 29 0 0 10-29 0 0 10 30 0 0 11-43 0 0-53 43 0z m58 28c0 12-9 14-16 14l-34 0 0-53 13 0 0 19 17 0c5 0 7-5 7-10l0-9 13 0 0 11c0 8-3 12-9 13 7 4 9 9 9 15z m-21-9l-16 0 0 12 17 0c5 0 7-4 7-6 0-4-2-6-8-6z m-103 9l0-39 13 0 0 53-21 0-16-36-16 36-21 0 0-51-23 51-18 0-23-53 14 0 5 12 26 0 6-12 26 0 0 40 18-40 12 0z m-101-16l8 19 8-19z m273-23l17 0 5 12 27 0 5-12 26 0 0 39 24-39 18 0 0 54-13 0 0-38-23 38-19 0 0-51-23 50-17 0-18-41c0 0-8 0-9 0-3 1-8 3-8 12l0 4c0 13 7 14 16 14l8 0 0 12-18 0c-6 0-19-5-19-27 0-15 6-27 21-27z m35 42l9-19-17 0z"/>
<glyph glyph-name="apple" unicode="&#98;" d="M270 243c-2 0-4-1-6-2-1-1-2-3-3-5 0-1 0-2 0-3l0-6c0-3 0-5 2-7 2-2 4-3 6-3 4 0 6 2 8 4 1 2 2 6 2 9 0 4-1 7-2 9-2 3-4 4-7 4z m115 0c-4 0-6-1-8-4-1-2-2-5-2-9 0-3 1-6 2-9 2-3 4-4 7-4 4 0 6 2 8 5 1 2 2 5 2 8 0 4-1 7-2 9-2 3-4 4-7 4z m-158 0c-2 0-3-1-5-2-2-1-3-3-3-5-1-1-1-2-1-3l0-6c0-3 1-5 3-7 1-2 4-3 6-3 3 0 6 2 7 4 2 2 3 6 3 9 0 4-1 7-2 9-2 3-5 4-8 4z m80 42c1 0 2 1 2 2 0 0 0 0 0 0l0 3c-5 0-7-1-7-4 0 0 0-1 1-2 0 0 1 0 2 0 1 0 2 0 2 1z m-128 2c1 1 2 4 2 7 0 3-1 5-2 7-2 1-4 2-7 2-1 0-2 0-3 0l0-19c0 0 1 0 3 0 3 0 5 1 7 3z m151 8c-1 1-2 1-3 1-1 0-2 0-3-1-1-2-1-3-1-5 0-2 0-3 1-4 1-1 2-2 3-2 2 0 3 0 4 1 0 1 1 2 1 4l0 3c0 0 0 1 0 1-1 1-1 2-2 2z m-45 2c-2 0-3-1-4-3-1-1-1-2-1-4 0-2 0-3 1-4 1-2 2-2 4-2 1 0 2 0 3 2 1 1 1 3 1 4 0 2 0 3-1 4-1 2-2 3-3 3z m76-13c2 0 3 0 4 2 1 1 1 3 1 4 0 2 0 3-1 4-1 2-2 3-4 3-1 0-3-1-3-3-1-1-1-2-1-4 0-2 0-3 1-4 1-2 2-2 3-2z m89-40c-3 0-5-1-7-4-1-1-2-3-2-6l17 0c0 3-1 5-2 6-1 3-3 4-6 4z m61-47l0 118c0 8-6 14-15 14l-480 0c-9 0-15-6-15-14l0-118c0-8 6-14 15-14l480 0c9 0 15 6 15 14z m-63 100c2 2 4 3 6 3 3 0 5-1 6-3 1-2 2-4 2-6 0-1 0-1 0-2l-12 0c0-2 0-3 2-4 1-1 2-1 3-1 2 0 4 0 5 1l1-3c-2-1-4-1-6-1-3 0-5 1-7 2-1 2-2 4-2 7 0 3 1 5 2 7z m-69 2l1-3 0 0c0 1 1 2 2 3 1 0 2 1 3 1 2 0 4-1 5-2 1-1 2-3 2-6l0-11-4 0 0 10c0 4-1 5-4 5-1 0-2 0-3-1-1-1-1-2-1-3l0-11-4 0 0 13c0 2 0 3 0 5z m-24-2c2 2 4 3 6 3 3 0 5-1 7-3 1-2 2-4 2-7 0-2-1-5-2-7-2-1-4-2-7-2-2 0-5 1-6 2-2 2-3 4-3 7 0 3 1 5 3 7z m-89 11l4 0 0-27-4 0z m-50-9l2-8c0-2 1-4 1-6l0 0c1 1 1 3 2 6l2 8 4 0 2-8c1-2 1-4 2-6l0 0c0 2 0 4 1 6l2 8 4 0-6-18-3 0-3 8c0 2-1 4-1 6l0 0c-1-2-1-4-2-6l-2-8-4 0-5 18z m-51 7c2 0 4 0 7 0 4 0 7-1 10-2 2-3 3-6 3-10 0-4-1-8-4-10-2-2-6-3-10-3-3 0-5 0-6 0z m-74-5c4 4 10 8 15 8 0-6-2-12-5-16-4-4-9-7-15-7-1 6 2 12 5 15z m28-78c-4-6-8-12-15-12-6 0-8 4-16 4-7 0-10-4-16-4-6 0-11 6-15 12-9 13-15 35-6 50 4 7 11 12 20 12 6 0 12-4 16-4 4 0 11 5 19 4 3 0 12-1 17-10 0 0-10-6-10-18 0-15 13-20 13-20 0 0-2-7-7-14z m75-11l-4 15-17 0-5-15-8 0 16 51 11 0 16-51z m12 71c-2-1-4-2-7-2-3 0-5 1-6 2-2 2-3 4-3 7 0 3 1 5 3 7 1 2 3 3 6 3 3 0 5-1 7-3 1-2 2-4 2-7 0-2-1-5-2-7z m34-67c-3-3-7-5-11-5-5 0-8 2-11 5l0 0 0-19-8 0 0 40c0 3 0 8 0 12l7 0 1-6 0 0c2 4 7 6 12 6 4 0 8-1 11-5 3-3 4-8 4-13 0-7-1-11-5-15z m8 79c0-1-1-2-1-3l0-11-4 0 0 13c0 2 0 3 0 5l4 0 0-3 0 0c0 1 1 2 2 3 1 0 2 1 4 1 1 0 3-1 4-2 1-1 2-3 2-6l0-11-4 0 0 10c0 4-1 5-4 5-1 0-2 0-3-1z m35-79c-4-3-7-5-12-5-5 0-8 2-10 5l0 0 0-19-9 0 0 40c0 3 0 8 0 12l7 0 1-6 0 0c3 4 7 6 12 6 5 0 8-1 11-5 3-3 5-8 5-13 0-7-2-11-5-15z m8 67c-1-1-4-2-6-2-3 0-5 1-7 2-1 2-2 4-2 7 0 3 1 5 2 7 2 2 4 3 7 3 2 0 5-1 6-3 2-2 3-4 3-7 0-2-1-5-3-7z m7 3c0 2 1 4 3 5 2 1 4 2 8 2l0 0c0 3-2 4-4 4-2 0-3-1-5-2l-1 3c2 1 4 2 7 2 4 0 7-3 7-8l0-7c0-1 0-3 0-4l-4 0 0 2 0 0c-1-1-3-2-5-2-2 0-3 0-4 1-1 1-2 3-2 4z m32-70c-3-3-8-5-14-5-5 0-9 1-13 3l2 7c4-2 8-3 12-3 3 0 5 1 7 2 2 1 3 3 3 6 0 2-1 3-2 5-2 1-4 2-7 4-9 3-14 8-14 14 0 5 2 8 5 11 3 2 7 4 12 4 5 0 9-1 12-3l-2-6c-3 1-6 2-10 2-3 0-5-1-7-2-1-1-2-3-2-5 0-2 1-4 3-5 1-1 3-2 7-4 4-2 8-4 10-6 2-2 3-5 3-9 0-4-2-8-5-10z m2 65l0 3 0 0c-1-2-3-3-6-3-2 0-4 1-5 2-2 2-2 4-2 7 0 3 0 5 2 7 1 2 3 3 5 3 3 0 5-1 6-3l0 0 0 11 4 0 0-22c0-2 0-3 0-5l-4 0z m30-38l-9 0 0-18c0-5 1-7 5-7 1 0 2 0 3 0l1-6c-2-1-4-1-7-1-3 0-6 1-7 3-2 2-3 5-3 10l0 19-6 0 0 6 6 0 0 6 8 3 0-9 9 0z m36-26c-4-4-8-6-14-6-5 0-9 2-13 5-3 4-4 9-4 14 0 6 1 10 4 14 4 4 8 5 14 5 5 0 10-1 13-5 3-3 5-8 5-13 0-6-2-11-5-14z m10 82l2 0 0 4 4 1 0-5 5 0 0-3-5 0 0-9c0-2 1-3 3-3 0 0 1 0 2 0l0-3c-1 0-2 0-4 0-1 0-2 0-3 1-1 1-2 3-2 5l0 9-2 0z m21-58c-1 1-2 1-2 1-3 0-6-1-7-4-2-1-2-4-2-7l0-19-8 0 0 25c0 4 0 8-1 12l8 0 0-7 0 0c1 2 2 4 4 5 2 2 4 2 6 2 1 0 1 0 2 0z m0 52c-1 0-1 0-1-1l0-11-4 0 0 27 4 0 0-11 0 0c2 2 4 3 6 3 2 0 3-1 4-2 1-1 2-3 2-6l0-11-4 0 0 10c0 4-1 5-4 5-1 0-3-1-3-3z m36-65l-24 0c0-3 1-6 3-8 2-2 5-3 8-3 4 0 7 1 10 2l2-6c-4-1-8-2-13-2-5 0-10 2-13 5-3 4-5 8-5 14 0 5 1 10 4 14 4 4 8 5 13 5 6 0 10-1 12-5 3-4 4-7 4-12 0-1 0-3-1-4z m-284 28l0 0c0-2-1-5-2-10l-5-13 14 0-4 13c-1 2-1 5-3 10z m18 41c-2 0-3-1-4-3 0-1-1-2-1-4 0-2 1-3 1-4 1-2 2-2 4-2 2 0 3 0 4 2 0 1 1 3 1 4 0 2-1 3-1 4-1 2-2 3-4 3z m258-2c0 1-1 2-3 2-1 0-2-1-3-2-1-1-1-2-1-3l8 0c0 1 0 2-1 3z"/>
<glyph glyph-name="arrow-circle-down" unicode="&#99;" d="M256 11c135 0 245 110 245 245 0 135-110 245-245 245-135 0-245-110-245-245 0-135 110-245 245-245z m0 17c-126 0-228 102-228 228 0 126 102 228 228 228 126 0 228-102 228-228 0-126-102-228-228-228z m-126 269c-5 4-6 11-2 16 4 5 12 5 17 1l111-92 111 92c5 5 13 4 17-1 4-5 3-12-2-16l-119-99c-2-2-4-3-7-3-3 0-5 1-7 3z"/>
<glyph glyph-name="arrow-circle-left" unicode="&#100;" d="M11 256c0-135 110-245 245-245 135 0 245 110 245 245 0 135-110 245-245 245-135 0-245-110-245-245z m17 0c0 126 102 228 228 228 126 0 228-102 228-228 0-126-102-228-228-228-126 0-228 102-228 228z m269 126c4 5 11 6 16 2 5-4 6-12 1-17l-92-111 92-111c5-5 4-13-1-17-5-4-12-3-16 2l-99 119c-2 2-3 4-3 7 0 3 1 5 3 7z"/>
<glyph glyph-name="arrow-circle-right" unicode="&#101;" d="M256 501c-135 0-245-110-245-245 0-135 110-245 245-245 135 0 245 110 245 245 0 135-110 245-245 245z m0-473c-126 0-228 102-228 228 0 126 102 228 228 228 126 0 228-102 228-228 0-126-102-228-228-228z m-41 354c-4 5-11 6-16 2-5-4-5-12-1-17l92-111-92-111c-5-5-4-13 1-17 5-4 12-3 16 2l99 119c2 2 3 4 3 7 0 3-1 5-3 7z"/>
<glyph glyph-name="arrow-circle-up" unicode="&#102;" d="M256 501c-135 0-245-110-245-245 0-135 110-245 245-245 135 0 245 110 245 245 0 135-110 245-245 245z m0-17c126 0 228-102 228-228 0-126-102-228-228-228-126 0-228 102-228 228 0 126 102 228 228 228z m126-269c5-4 6-11 2-16-4-5-12-6-17-1l-111 92-111-92c-5-5-13-4-17 1-4 5-3 12 2 16l119 99c2 2 4 3 7 3 3 0 5-1 7-3z"/>
<glyph glyph-name="arrow-down" unicode="&#103;" d="M60 319l184-154c4-3 8-4 12-4 4 0 8 1 12 4l184 154c8 6 9 18 2 26-6 7-17 8-25 2l-173-144-173 144c-8 6-19 5-25-2-7-8-6-20 2-26z"/>
<glyph glyph-name="arrow-left" unicode="&#104;" d="M345 58c7 6 8 17 2 25l-144 173 144 173c6 8 5 19-2 25-8 7-20 6-26-2l-154-184c-3-4-4-8-4-12 0-4 1-8 4-12l154-184c6-8 18-9 26-2z"/>
<glyph glyph-name="arrow-right" unicode="&#105;" d="M167 454c-7-6-8-17-2-25l144-173-144-173c-6-8-5-19 3-25 7-7 19-6 25 2l154 184c3 4 4 8 4 12 0 4-1 8-4 12l-154 184c-6 8-18 9-26 2z"/>
<glyph glyph-name="arrow-up" unicode="&#106;" d="M58 167c6-7 17-8 25-2l173 144 173-144c8-6 19-5 25 2 7 8 6 20-2 26l-184 154c-4 3-8 4-12 4-4 0-8-1-12-4l-184-154c-8-6-9-18-2-26z"/>
<glyph glyph-name="cap" unicode="&#107;" d="M498 286l-241 80-243-75 29-11 0-68c-4-2-6-5-6-9 0-3 2-6 5-8-1-13-5-45-4-48 2-2 4 0 5 1 1 1 3-1 5-1 2 0 3 2 4 1 1 0 7-1 6 0 0 1-1 32-6 48 2 1 5 4 5 7 0 4-2 8-6 9l0 65 98-36c-15-22-25-46-25-66 0 0 59 24 131 23 73 0 131-25 131-25 0 20-8 43-23 65z"/>
<glyph glyph-name="clock" unicode="&#108;" d="M350 304l-89-40 0 105c0 17-25 16-25 0l0-126c0-9 10-16 20-11l104 51c15 6 6 28-10 21z m-94 158c-114 0-206-92-206-206 0-114 92-206 206-206 114 0 206 92 206 206 0 114-92 206-206 206z m0-388c-101 0-182 81-182 182 0 101 81 182 182 182 101 0 182-81 182-182 0-101-81-182-182-182z"/>
<glyph glyph-name="comment" unicode="&#109;" d="M471 282c0 102-96 186-215 186-119 0-215-84-215-186 0-103 96-186 215-186 34 0 66 7 94 19l106-49-26 106c26 31 41 69 41 110z m-40-187l-79 42c-28-14-61-21-96-21-108 0-196 74-196 166 0 92 88 166 196 166 108 0 196-74 196-166 0-39-16-76-43-104z"/>
<glyph glyph-name="facebook" unicode="&#110;" d="M256 501c-135 0-245-110-245-245 0-135 110-245 245-245 135 0 245 110 245 245 0 135-110 245-245 245z m0-473c-126 0-228 102-228 228 0 126 102 228 228 228 126 0 228-102 228-228 0-126-102-228-228-228z m-28 293l0-25-44 0 0-42 44 0 0-127 49 0 0 127 51 0 0 42-51 0 0 29c0 9 5 15 10 15l41 0 0 45-41 0c-34 0-59-29-59-64z"/>
<glyph glyph-name="google" unicode="&#111;" d="M256 501c-135 0-245-110-245-245 0-135 110-245 245-245 135 0 245 110 245 245 0 135-110 245-245 245z m0-473c-126 0-228 102-228 228 0 126 102 228 228 228 126 0 228-102 228-228 0-126-102-228-228-228z m104 367l-20 0 0-39-38 0 0-19 38 0 0-39 20 0 0 39 38 0 0 19-38 0z m-65 4c0 0-62 0-84 0-43 0-78-32-78-66 0-36 23-64 63-64 3 0 6 0 8 0-2-5-4-10-4-16 0-10 5-15 12-22-5 0-10 0-15 0-49 0-83-34-83-66 0-32 41-52 90-52 55 0 89 32 89 64 0 25-5 38-32 58-8 6-25 18-25 26 0 10 3 14 17 25 15 12 25 27 25 45 0 21-8 39-24 48l22 0z m-29-217c1-3 1-6 1-9 0-25-16-45-64-45-33 0-58 21-58 47 0 25 29 46 63 46 7 0 15-1 21-4 19-12 34-20 37-35z m-54 100c-22 1-44 21-48 51-4 30 11 53 34 52 23-1 42-25 46-55 4-30-9-49-32-48z"/>
<glyph glyph-name="link" unicode="&#112;" d="M353 471l-89 0c-6 0-10-4-10-9 0-6 4-10 10-10l89 0c21 0 39-19 39-40l0-315c0-21-18-37-39-37l-89 0c-5 0-10-4-10-10 0-5 5-9 10-9l89 0c31 0 58 24 58 56l0 315c0 32-27 59-58 59z m-21-218c2 1 3 4 3 6 0 3-1 5-3 7l-76 76c-2 2-4 3-6 3-3 0-5-1-7-3-4-4-4-10 0-14l58-58-191 0c-5 0-9-4-9-9 0-5 4-10 9-10l194 0-61-61c-4-3-4-9 0-13 3-4 10-4 13 0z"/>
<glyph glyph-name="linkedin" unicode="&#113;" d="M256 501c-135 0-245-110-245-245 0-135 110-245 245-245 135 0 245 110 245 245 0 135-110 245-245 245z m0-473c-126 0-228 102-228 228 0 126 102 228 228 228 126 0 228-102 228-228 0-126-102-228-228-228z m-97 269l44 0 0-154-44 0z m169-8c-16 9-41 10-58 2l0 6-44 0 0-154 44 0 0 99 18 8c5 3 14 2 18 0 4-2 8-9 8-13l0-94 44 0 0 94c0 20-12 42-30 52z m-147 80c-15 0-27-12-27-27 0-16 12-28 27-28 16 0 28 12 28 28 0 15-12 27-28 27z"/>
<glyph glyph-name="location" unicode="&#114;" d="M256 468c-91 0-166-74-166-166 0-171 166-258 166-258 0 0 166 87 166 258 0 92-74 166-166 166z m0-402c-33 20-147 100-147 236 0 81 66 147 147 147 81 0 147-66 147-147 0-136-114-216-147-236z m0 319c-46 0-83-37-83-83 0-46 37-83 83-83 46 0 83 37 83 83 0 46-37 83-83 83z m0-147c-36 0-64 28-64 64 0 36 28 64 64 64 36 0 64-28 64-64 0-36-28-64-64-64z"/>
<glyph glyph-name="lock" unicode="&#115;" d="M357 290l-9 0 0 39c0 8-2 46-28 73-17 17-38 25-63 26l-1 0c0 0 0 0 0 0l0 0 0 0c0 0 0 0 0 0l-1 0c-25-1-46-9-63-26-26-27-28-65-28-73l0-39-9 0c-14 0-26-11-26-26l0-153c0-15 12-27 26-27l202 0c14 0 26 12 26 27l0 153c0 15-12 26-26 26z m-152 99c14 14 30 20 51 20 0 0 0 0 0 0l0 0c0 0 0 0 0 0 21 0 37-6 51-20 22-22 23-56 22-60l0-39-146 0 0 39c-1 4 0 38 22 60z m160-278c0-5-3-8-8-8l-202 0c-5 0-8 3-8 8l0 153c0 5 4 8 8 8l202 0c4 0 8-3 8-8z"/>
<glyph glyph-name="master" unicode="&#116;" d="M240 253l12 0 0 1 0 1 0 1-1 0 0 1 0 0 0 1-1 0 0 1 0 0-1 0 0 0-1 1 0 0-1 0 0 0-1 0 0 0-1 0-1-1 0 0-1 0 0 0 0-1-1 0 0-1 0 0-1-1 0 0 0-1 0 0-1-1 0-1 0 0z m90-5l0 0 0 1-1 0 0 0-1 0 0 0-2-1 0 0-1 0 0 0 0 0-1 0 0 0 0 0 0 0-1 0 0-1 0 0-1 0 0 0-1 0 0-1 0 0-1-1 0 0 0 0 0-1-1 0 0-1 1-1 0-1 0 0 1-1 0 0 1 0 0 0 1 0 1 0 1 0 0 0 1 1 1 0 0 0 1 1 0 0 1 0 0 1 0 0 0 1 1 0 0 0 0 1 0 0 0 1 0 1 0 1 0 0z m52 5l0 1-1 1 0 1 0 0 0 1-1 0 0 1-1 0 0 0-1 1-1 0 0 0-1-1-1 0-1 0 0-1-1 0 0-1-1 0 0-1-1 0 0-1-1-1 0-1 0-1 0-1 0 0-1-2 0-1 1-2 0-1 1-1 0-1 1-1 2 0 1 0 0 0 1 0 1 0 0 1 1 0 1 1 0 0 1 1 0 1 0 0 1 1 0 1 0 1 0 0 1 1 0 1 0 1 0 1 0 1z m-204-5l0 0 0 0-1 1 0 0-1 0 0 0-1-1 0 0-1 0 0 0-1 0 0 0 0 0-1 0 0 0 0 0-1 0 0-1 0 0-1 0 0 0-1-1 0 0 0 0-1-1 0 0 0 0 0-1-1 0 0-1 1-1 0-1 0 0 1-1 0 0 1 0 0 0 1 0 1 0 1 0 1 0 0 1 1 0 0 0 1 1 0 0 0 0 1 1 0 0 0 0 0 1 1 0 0 0 0 1 0 1 0 1 0 1 0 0z m229 13l0 4-1 5 0 4-1 5-2 4-1 4-2 4-1 4-2 4-3 4-2 4-3 3-2 4-3 3-3 3-3 3-4 3-3 3-4 2-3 3-4 2-4 2-4 2-4 1-4 2-5 1-4 1-5 1-4 0-5 1-4 0-5 0-5-1-4 0-5-1-4-1-4-1-4-2-5-1-4-2-4-2-3-2-4-3-4-2-3-3-3-3-3 3-3 3-4 2-4 3-4 2-3 2-4 2-5 1-4 2-4 1-4 1-5 1-4 0-5 1-5 0-4 0-5-1-4 0-5-1-4-1-5-1-4-2-4-1-4-2-4-2-4-2-3-3-4-2-3-3-4-3-3-3-3-3-3-3-2-4-3-3-2-4-3-4-2-4-1-4-2-4-1-4-2-4-1-5 0-4-1-5 0-4-1-5 1-5 0-4 1-5 0-4 1-5 2-4 1-4 2-4 1-4 2-4 3-4 2-4 3-3 2-4 3-3 3-3 3-3 4-3 3-3 4-2 3-3 4-2 4-2 4-2 4-1 4-2 5-1 4-1 5-1 4 0 5-1 4 0 5 0 5 1 4 0 5 1 4 1 4 1 4 2 5 1 4 2 3 2 4 2 4 3 4 2 3 3 3 3 3-3 3-3 4-2 4-3 3-2 4-2 4-2 5-1 4-2 4-1 4-1 5-1 4 0 5-1 5 0 4 0 5 1 4 0 5 1 4 1 5 1 4 2 4 1 4 2 4 2 4 2 3 3 4 2 3 3 4 3 3 3 3 3 3 3 2 4 3 3 2 4 3 4 2 4 1 4 2 4 1 4 2 4 1 5 0 4 1 5 0 4 1 5z m-126-1l-1-1 0 0 0-1 0 0 0 0 0 0 0 0 0 0 0 0-1 0 0 0 0 0 0 0-1 0-1 0-1-1-1 0-1 0 0-1-1 0 0-1-1 0 0-1 0 0-1-1 0 0 0-1 0-1 0 0-3-18-9 0 6 33 8 0-1-6 1 1 0 1 1 0 0 1 1 0 0 1 1 0 0 1 1 0 0 0 1 1 1 0 0 0 1 0 1 0 1 0 0 0 0 0 1 0 0 0 0 0 0 0 0 0 0 0 0 0 0 0 0-1 0 0-1 0 0-1 0-1-1 0 0-1 0-1z m-127-27l-8 0 5 30 0 0-13-30-9 0 0 1-1 4 0 5 0 5 0 5-1 5 0 4 0 1 0 0-6-30-8 0 7 40 15 0 1-23 10 23 15 0z m32 7l-1-7-8 0 0 1 0 2 0 0 0 1 0-1 0 0-1-1-1 0 0 0-1-1-1 0-1 0-1-1-1 0 0 0-1 0-1 0-1 0-1 0-1 0-1 0-1 0-1 1-1 0 0 1-1 0 0 1-1 1 0 0 0 1-1 1 0 0 0 1 0 1 0 0 0 1 0 1 0 1 1 1 0 1 0 1 1 1 1 1 0 1 1 1 1 0 1 1 1 0 1 1 1 0 1 0 1 1 0 0 0 0 0 0 1 0 0 0 0 0 1 0 0 0 1 0 0 0 1 0 0 0 1 0 0 0 1 0 1 0 1 0 0 0 1 0 1 0 0 0 0 0 0 0 0 0 1 1 0 0 0 1 0 1-1 0 0 1 0 0-1 1-1 0 0 0-1 0-1 0-1 0-1 0-1 0-1 0-1 0-1 0-1 0-1 0-1 0 0-1-1 0-1 0 0 0-1 0 0 0 2 7 1 0 0 0 1 1 1 0 1 0 0 0 1 0 1 0 1 0 1 0 1 0 3 0 1 0 1 0 1 0 1 0 0 0 1 0 1-1 1 0 1-1 1 0 1-1 1-1 0-1 1 0 0-1 0-1 0-2 0-1z m27 19l-1 0 0 0 0 0-1 0 0 0-1 0 0 0 0 0-1 0 0 0-1 1 0 0-1 0-1 0-1-1 0 0-1 0-1 0 0 0-1 0 0 0 0-1-1 0 0 0 0-1 0 0 0 0 0-1 0 0 0 0 0-1 0 0 1-1 1 0 1-1 0 0 1 0 1-1 1 0 1 0 1-1 1-1 1 0 1-1 0-1 0-2 1-1-1-2 0-2 0-1-1-1 0-1-1-1-1-1-1-1-1 0-1-1-1 0-1 0-1-1-1 0-1 0-1 0-1 0-1 0-1 0-1 0-1 0-1 0-1 0-1 0 0 0-1 0-1 1 0 0-1 0 0 0-1 0 0 0-1 0 2 7 0 0 0 0 1 0 0 0 1 0 0 0 1-1 1 0 0 0 1 0 1 0 1 0 1 0 1 0 1 0 0 0 1 0 1 0 1 1 0 0 0 0 1 1 0 0 0 1 0 1 0 1-1 0-1 1-1 0-1 1-1 0-1 1-1 0-1 1-1 1-1 0-1 2-1 1 0 2 0 2 0 1 0 1 1 1 0 1 1 1 0 1 1 0 1 1 0 1 1 0 1 1 2 0 1 0 2 0 1 1 2 0 1 0 1 0 1 0 1 0 1-1 0 0 1 0 1 0 0 0 1 0 0 0 0 0 1 0 0 0 0 0 0 0z m16-24l-1-1 0 0 0 0 0 0 0 0-1 0 0 0 0 0-1 0 0 0 0 0-1-1 0 0 0 0-1 0 0 0-3 0-1 0-1 0-1 1-1 0-1 0 0 0-1 1 0 0 0 1-1 0 0 1 0 0 0 1 0 1 0 0 0 1 6 33 9 0-2-7 5 0-1-7-5 0-3-17 0 0 0-1 0 0 1-1 0 0 1 0 1 0 0 0 1 0 1 0 0 0 1 0 0 0 0 0 1 0 0 0z m9 0l-2 1-1 1-1 1-1 1-1 1-1 2 0 2-1 2 0 2-4 0-1 5 6 0 0 1 0 1 1 2 0 1 1 1 1 1 1 2 1 1 1 1 2 1 2 1 2 0 2 0 2 1 2 0 1-1 1 0 1 0 2-1 1 0 1-1 1-1 1-1 1-1 0-1 1-2 0-2 0-2 0-2-1-3 0-2-20 0 0 0 0-1 0 0 0-1 1 0 0-1 0 0 0-1 1 0 0-1 1 0 0-1 1 0 1 0 0-1 1 0 1 0 0 0 1 0 1 0 1 0 1 0 0 0 1 0 1 0 1 0 1 0 1 1 0 0 1 0 1 1 1 0-1-7-1 0 0-1-1 0 0 0-1 0 0 0-1 0 0 0-1-1 0 0-1 0-1 0 0 0-1 0-1 0-1 0-2 0-1 0-2 1-1 0-2 0z m71 31l-1 0 0 0-1 0 0 0-1 0-1 0 0 0-3 0 0 0-1 0-1 0-1 0-1-1-1 0-1-1 0 0-1-1-1-1-1-1 0-1-1-2-1-2 0-2 0-1 0-1 0-1 0-1 0-1 0-1 0-1 1-1 0-1 1 0 0-1 1-1 1 0 1-1 1 0 1 0 0-1 1 0 0 0 1 0 1 0 1 0 1 0 1 0 0 0 1 1 1 0 1 0 0 1 1 0 1 1-2-8 0-1 0 0 0 0-1 0 0 0 0-1-1 0 0 0-1 0-1 0-1-1-1 0-1 0-1 0-2 0-2 0-1 1-2 0-1 0-1 1-2 1-1 1-1 1-1 1-1 1-1 2-1 1-1 2 0 2 0 3 0 2 0 2 1 2 0 1 0 1 1 1 0 1 0 1 1 1 0 1 1 1 0 1 1 1 0 1 1 1 0 0 1 1 0 1 1 0 1 1 1 0 0 1 1 0 1 1 1 0 1 0 1 1 1 0 1 0 1 0 1 1 1 0 1 0 1 0 1 0 1 0 1 0 1-1 1 0 1 0 0 0 1 0 1 0 0-1 1 0 0 0 1 0 0 0 1 0 0 0-2-9 0 0-1 1 0 0 0 0-1 0 0 0z m29-26l-2-7-7 0 0 1 0 2 0 0 0 1-1-1 0 0-1-1 0 0-1 0-1-1 0 0-1 0-1-1-1 0-1 0 0 0-1 0-1 0-1 0-1 0-1 0-1 0-1 1-1 0 0 1-1 0 0 1-1 1 0 0 0 1-1 1 0 0 0 1 0 1 0 0 0 1 0 1 0 1 0 1 1 1 0 1 1 1 1 1 0 1 1 1 1 0 1 1 1 0 1 1 1 0 1 0 1 1 0 0 0 0 0 0 0 0 1 0 0 0 1 0 0 0 1 0 0 0 1 0 0 0 1 0 0 0 1 0 1 0 0 0 1 0 1 0 0 0 1 0 0 0 0 0 0 0 0 1 1 0 0 1-1 1 0 0 0 1-1 0 0 1-1 0-1 0 0 0-1 0-1 0-1 0-1 0-1 0-1 0-1 0-1 0-1 0-1 0 0-1-1 0-1 0 0 0-1 0 0 0 2 7 1 0 0 0 1 1 1 0 1 0 0 0 1 0 1 0 1 0 1 0 1 0 2 0 1 0 2 0 0 0 1 0 1 0 1 0 1-1 1 0 1-1 1 0 1-1 0-1 1-1 0 0 1-1 0-1 0-2 0-1z m19 18l0 0-1-1-1 0-1-1 0 0-1-1 0 0 0-1-1-1 0 0 0-1 0-1 0 0-3-18-9 0 6 33 8 0-1-6 1 1 0 1 1 0 0 1 1 1 1 0 0 1 1 0 0 0 1 1 1 0 0 0 1 0 1 0 1 0-2-8 0 0-1 0-2 0z m31-25l-9 0 1 4 0 0-1-1 0 0-1-1 0 0-1-1-1 0 0 0-1 0 0-1-1 0 0 0-1 0-1 0 0 0-1 0 0 0-2 0-1 0-2 1-1 0-1 1-1 1-1 2-1 1 0 1-1 2 0 1 0 2 0 1 0 2 0 1 0 2 0 2 1 1 1 2 0 1 1 2 1 1 1 1 1 1 1 1 1 1 1 1 2 0 1 0 1 1 1 0 2 0 0 0 1 0 1 0 1-1 0 0 1 0 1 0 0-1 1 0 0 0 1-1 0 0 0-1 1 0 0 0 0-1 2 12 8 0z"/>
<glyph glyph-name="notification" unicode="&#117;" d="M354 402l6 14c1 5-1 11-6 13-5 2-11-1-13-6l-6-14c-64 17-131-16-155-79l-32-88-59-27c-4-2-6-6-6-10 0-3 2-7 6-8l108-39c-5-25 10-51 35-59 25-9 52 1 65 23l108-39c5-2 10 1 12 6 1 3 1 6-1 9l-27 57 32 89c24 62-7 131-67 158z m-115-285c-15 6-24 20-23 35l62-23c-9-12-25-17-39-12z m164 133l-34-92c-1-2-1-5 1-7l19-41-93 33-84 30-94 34 42 19c2 1 4 3 5 6l34 91c20 56 83 84 139 64 57-20 85-82 65-137z"/>
<glyph glyph-name="paypal" unicode="&#118;" d="M484 314c0 2-1 5-4 5l-13 0c0 0 0 0 0 0l0 0c-2 0-5-2-6-5 0 0 0 0 0 0 0 0 0-2-1-3l-17-77c0-2 0-3 0-3l0 0c-1-3 1-5 3-6l0 0 13 0c3 0 5 2 6 5 0 0 0 0 0 1l19 83z m-51-20c-6 3-14 4-25 4-5 0-11 0-17-1-4-1-4-1-7-1-5-1-6-7-6-7l-1-6c-1-5 1-5 2-4 3 0 4 1 9 2 4 1 9 2 12 2 6 0 10-1 13-2 3-1 4-3 4-6 0-1 0-1 0-2 0-1-1-1-2-1-8-1-14-1-20-2-7-1-13-3-18-5-5-2-9-6-12-9-2-4-3-9-3-15 0-5 1-9 5-13 4-3 9-5 15-5 3 0 6 1 8 1 2 1 4 1 7 2 1 1 3 2 5 3 2 2 4 3 6 4l0 0-1-2c0 0 0 0 0 0l0 0c0-3 1-5 4-6l0 0 0 0 0 0c2 0 8 0 11 0l1 0c1 0 1 0 1 0 2 1 5 3 6 6l10 43c0 1 0 2 0 3 0 2 0 3 0 4 0 6-2 10-7 13z m-20-37c0-1-2-8-3-12 0-1-1-2-2-2-1-1-3-2-5-3-3-1-5-2-7-2-4 0-6 1-8 2-2 1-3 3-3 5 0 3 1 5 2 7 2 1 4 3 6 4 3 0 6 1 9 2 3 0 9 1 10 1 1 0 2 0 1-2z m-136 40c-3 0-16 0-16 0-3 0-7-2-9-5 0 0-20-33-22-37-1-2-2 0-2 0 0 1-6 37-6 37-1 3-4 5-7 5l-13 0c-3 0-4-2-4-5 0 0 10-53 11-65 1-7 0-8 0-8l-12-22c-2-2-1-5 2-5l15 0c3 0 6 3 8 5l55 93c0 0 5 7 0 7z m-159 9c-2 3-4 6-7 8-4 2-8 4-12 4-5 1-10 2-16 2l-29 0c-3 0-6-3-7-5l-19-84c0-3 1-5 4-5l14 0c3 0 6 2 7 5l4 20c1 3 4 5 7 5l4 0c16 0 29 4 39 11 9 6 14 16 14 27 0 5-1 9-3 12z m-29-27c-5-3-10-5-18-5l-3 0c-3 0-5 3-4 5l4 18c1 3 3 5 6 5l5 0c5 0 9-1 12-2 2-2 4-5 4-8 0-6-2-10-6-13z m278 27c-2 3-5 6-8 8-3 2-7 3-12 4-4 1-10 1-16 1l-29 0c-3 0-5-2-6-5l-19-84c-1-2 1-5 4-5l13 0c3 0 6 3 7 5l5 21c0 3 3 5 6 5l4 0c17 0 30 3 39 10 9 7 14 16 14 27 0 5-1 9-2 13z m-30-28c-4-3-10-4-17-4l-4 0c-3 0-5 2-4 5l4 18c1 3 4 5 7 5l4 0c6 0 9-1 12-3 3-1 4-4 4-8 0-5-2-10-6-13z m-153 16c-5 3-13 4-24 4-6 0-11 0-17-1-4 0-4-1-7-1-5-1-6-6-6-6l-2-7c-1-5 2-5 3-4 2 0 4 1 8 2 5 1 9 2 13 2 5 0 10-1 12-2 3-1 5-3 5-6 0-1 0-1-1-2 0-1 0-1-2-1-7-1-13-1-20-2-7-1-12-3-17-5-5-2-9-6-12-9-3-4-4-9-4-15 0-5 2-9 6-13 3-3 8-5 14-5 4 0 7 1 9 1 2 1 4 1 6 2 2 1 4 2 6 4 2 1 3 2 5 3l0 0 0-2c0 0 0 0 0 0l0 0c-1-3 1-5 3-6l0 0 1 0 0 0c1 0 7 0 10 0l2 0c0 0 0 0 0 1 3 0 5 2 6 5l10 43c0 1 0 2 1 3 0 2 0 3 0 4 0 6-3 10-8 13z m-19-37c0-1-2-8-3-11 0-1-2-3-2-3-2-1-4-2-6-3-2-1-4-2-7-2-3 0-6 1-7 2-2 1-3 3-3 5 0 3 1 5 2 7 1 1 3 3 6 4 2 0 5 1 9 2 3 0 9 1 10 1 1 0 1 0 1-2z"/>
<glyph glyph-name="play" unicode="&#119;" d="M225 260c-3 0-5 0-7-2-2-2-3-5-3-8 0-7 4-18 12-18 3 0 5 1 7 3 2 2 2 5 2 8 0 6-3 17-11 17z m-35 34c1 0 1 0 1 0 2 0 3 0 4 1 1 1 1 2 1 3 0 2 0 3-1 4-1 1-2 1-4 1 0 0-1 0-1 0 0-1 0-3 0-4 0-2 0-4 0-5z m72-34c-3 0-5 0-6-2-3-2-4-5-4-8 0-7 4-18 12-18 3 0 5 1 7 3 2 2 2 5 2 8 0 6-3 17-11 17z m37-31c0 0-4 0-7-1-2-1-6-3-6-7 0-5 5-9 12-9 7 0 10 3 10 8 0 3-2 5-7 9-1 0-1 0-2 0z m-136 74l0 0c0 0-1-2-2-5l4 0c-2 3-2 5-2 5z m59-10c1 0 2 1 2 2 1 1 2 2 2 3 0 2-1 3-2 4 0 1-1 1-2 1-1 0-2 0-3-1-1-1-1-2-1-4 0-1 0-2 1-3 1-1 2-2 3-2z m19 1c1 0 1 0 2 0 1 0 2 0 3 1 1 1 1 2 1 3 0 2 0 3-1 4-1 1-2 1-4 1 0 0 0 0-1 0 0-1 0-3 0-4 0-2 0-4 0-5z m23 9l0 0c0 0-1-2-2-5l4 0c-2 3-2 5-2 5z m-58 0c0 0-1 0-1 0 0-1 0-2 0-4 0 0 0 0 1 0 2 0 3 1 3 2 0 2-1 2-3 2z m90-44c-2 0-4-1-5-2-1-1-1-3-1-5 0-5 2-12 8-12 2 0 4 1 5 2 1 1 1 3 1 5 0 5-2 12-8 12z m55-5c0 3-3 6-7 6-3 0-8-2-8-9 0-1 1-3 1-4l12 6c1 0 2 0 2 1z m-41 39c1 0 2 1 3 2 1 1 1 2 1 3 0 2 0 3-1 4-1 1-2 1-3 1-1 0-2 0-3-1 0-1-1-2-1-4 0-1 1-2 1-3 1-1 2-2 3-2z m87-34c-3 0-6-1-7-3-2-2-3-5-3-9l0-1c0-5 1-8 3-10 1-2 4-3 7-3 3 0 5 1 7 3 1 3 2 6 2 10 0 4-1 7-2 9-2 2-4 4-7 4z m91 80l-464 0c-13 0-23-10-23-22l0-122c0-12 10-22 23-22l464 0c13 0 23 10 23 22l0 122c0 12-10 22-23 22z m-168-34l3 0c0 0 1-1 3-4 2-3 3-5 3-6l0 0c0 2 0 3 0 4 0 2 0 4 0 6l2 0c0-1 0-4 0-6 0-3 0-5 0-8l-2 0c0 1-1 2-3 5-2 3-3 5-4 6l0 0c0-1 0-3 0-4 0-2 0-4 1-7l-3 0c0 3 0 5 0 8 0 2 0 5 0 6z m-15-1c2 1 3 2 5 2 2 0 4-1 5-2 1-2 2-3 2-5 0-2-1-4-2-6-1-1-3-2-5-2-2 0-4 1-5 2-1 1-2 3-2 5 0 2 1 4 2 6z m-19 1l2 0c0 0 0 0 1 0 1 0 2 0 2 0 1 0 3 0 4 0 0-1 1-2 1-3 0-2-1-3-2-4-1-1-3-1-5-1 0 0 0 0 0 0 0-2 0-3 0-6l-3 0c0 3 0 5 0 8 0 2 0 5 0 6z m-13 0l2 0c0 0 1 0 1 0 1 0 2 0 2 0 2 0 3 0 4 0 1-1 1-2 1-3 0-2-1-3-2-4-1-1-3-1-4-1-1 0-1 0-1 0 0-2 0-3 0-6l-3 0c0 3 0 5 0 8 0 2 0 5 0 6z m-13-7c1 5 2 7 2 7l4 0c0 0 1-2 2-7 2-4 3-6 3-7l-4 0c0 1 0 2-1 4l-5 0c0-2-1-3-1-4l-3 0c0 1 1 3 3 7z m-22 7l2 0c0 0 1 0 2 0 0 0 1 0 1 0 2 0 4 0 5-1 1-2 2-3 2-5 0-2-1-4-2-5-1-2-3-3-5-3-1 0-3 0-5 0 0 3 0 5 0 8 0 2 0 5 0 6z m-6 0l3 0c-1-1-1-4-1-6 0-3 0-5 1-8l-3 0c0 3 0 5 0 8 0 2 0 5 0 6z m-15-1c1 1 3 2 5 2 2 0 3-1 5-2 1-2 2-3 2-5 0-2-1-4-2-6-2-1-3-2-5-2-2 0-4 1-5 2-1 1-2 3-2 5 0 2 1 4 2 6z m-30 1l2 0c0 0 1 0 1 0 1 0 1 0 2 0 2 0 4 0 5-1 1-2 2-3 2-5 0-2-1-4-2-5-1-2-3-3-6-3-1 0-2 0-4 0 0 3 0 5 0 8 0 2 0 5 0 6z m-15 0l3 0c0 0 1-1 3-4 2-3 3-5 3-6l0 0c0 2 0 3 0 4 0 2 0 4 0 6l2 0c0-1 0-4 0-6 0-3 0-5 0-8l-2 0c0 1-1 2-3 5-2 3-3 5-4 6l0 0c0-1 0-3 0-4 0-2 0-4 1-7l-3 0c0 3 0 5 0 8 0 2 0 5 0 6z m-13-7c1 5 2 7 2 7l4 0c0 0 1-2 2-7 2-4 3-6 3-7l-4 0c0 1 0 2-1 4l-5 0c0-2-1-3-1-4l-3 0c0 1 1 3 3 7z m-25-50c0 0 0 0 0 0-1 0-3-1-5-3l-1 0c0 0-1 0-1-1l-15-8c0 0 0 0 0 0l0 0-23-14-1 0c0 0 0 0 0 0l0 0c0 0 0 0 0 0l-39-22c-3-2-5-4-6-4 0 0 0 0 0 0l-3-2 0 4c0 2 0 53 0 53 0 0 0 46 0 51l0 6 4-3c0 0 0 0 0 0 3-2 43-25 45-26l0 0 23-13 26-15z m70-4c0-1 0-1 0-1-1-1-1-3-1-4l0-8-9-2c-4-1-8-2-12-2-19 0-26 14-26 25 0 14 10 26 28 26 3 0 7 0 10-1 5-2 8-4 9-5l-5-5-3-1 2 3c-2 2-7 7-15 7-11 0-19-9-19-21 0-13 10-25 25-25 4 0 6 1 8 2l0 11-10-1 5 3 15 0z m2 53c0 0-1 0-1 0 0-2 0-4 0-6l-3 0c0 3 0 5 0 8 0 2 0 5 0 6l2 0c0 0 0 0 1 0 1 0 1 0 2 0 3 0 5-1 5-3 0-2-1-3-3-4l0 0c1 0 1-1 2-1 1-1 1-3 2-6l-3 0c-1 3-1 5-2 5 0 1-1 1-2 1z m19-67c-11 0-16 8-16 16 0 9 7 17 17 17 10 0 17-8 17-17 0-8-7-16-18-16z m37 0c-10 0-16 8-16 16 0 9 7 17 17 17 11 0 17-8 17-17 0-8-6-16-18-16z m49 20c0-5-3-8-6-10-1-1-2-2-2-3 0-2 1-3 2-3l2-2c3-3 6-5 6-10 0-6-6-13-18-13-10 0-15 5-15 10 0 3 1 6 5 8 5 3 10 3 13 4-1 1-2 2-2 4 0 1 1 2 1 3-1 0-1 0-2 0-7 0-12 5-12 11 0 3 2 6 5 9 4 3 8 4 12 4l14 0-4-3-4 0c1-1 5-4 5-9z m17-19l-12 0c2 2 2 2 2 4l0 42 0 0 0 0-5 0 5 3 10 0c-2-2-3-2-3-4 0-1 0-1 0-1l0-39c0-3 0-3 2-3 2 0 3 0 4-1z m27 1c0 0-1-1-2-1-2-1-4-1-6-1-3 0-6 0-10 2-4 4-7 10-7 15 0 10 9 16 16 16 3 0 5-1 7-2 4-3 5-6 5-7l-16-7-5 0c1-9 7-14 14-14 3 0 6 1 8 3z m9 30l-2 0 0-4 0 0 0 4-2 0 0 1 4 0 0-1z m5-4l-1 0 0 4 0 0-1-4-1 0-1 4 0 0 0-4-1 0 0 5 1 0 2-4 0 0 1 4 1 0 0-5z m39-25c-3-3-6-4-10-4-2 0-4 0-6 1-2 1-3 2-5 4l0 0c0-2 0-4 0-6l0-13-5 0 0 47 4 0 1-4 0 0c2 1 3 3 5 4 2 0 4 1 6 1 4 0 7-2 10-5 2-3 3-7 3-12 0-6-1-10-3-13z m15-4l-5 0 0 47 5 0z m32 0l-4 0-1 5 0 0c-1-2-3-3-5-4-1-1-3-1-6-1-3 0-6 1-7 2-2 2-3 4-3 7 0 7 5 11 16 11l5 0 0 2c0 3 0 5-1 6-2 1-3 2-6 2-2 0-6-1-9-3l-2 4c2 1 4 1 6 2 2 0 4 1 6 1 3 0 6-1 8-3 2-2 3-4 3-8l0-23z m20-4c-2-4-3-7-5-8-2-2-4-2-7-2-2 0-3 0-5 0l0 4c1 0 3 0 4 0 3 0 6 2 7 6l2 4-13 33 5 0 7-19c2-4 3-7 3-9l1 0c0 1 0 3 1 5 1 3 4 10 8 23l6 0z m-38 18c-2-1-3-2-3-5 0-1 1-3 2-4 1-1 2-1 4-1 3 0 6 1 7 2 2 2 3 4 3 8l0 2-5 0c-4 0-7 0-8-2z m-161 56c3 0 4 1 4 2 0 2-1 2-3 2 0 0-1 0-1 0 0-1 0-3 0-4 0 0 0 0 0 0z m13 0c3 0 4 1 4 2 0 2-1 2-3 2 0 0-1 0-1 0 0-1 0-3 0-4 0 0 0 0 0 0z"/>
<glyph glyph-name="print" unicode="&#120;" d="M420 318l-37 0 0 154-250 0 0-154-41 0c-26 0-47-21-47-47l0-100c0-26 21-47 47-47l41 0 0-84 250 0 0 84 37 0c26 0 47 21 47 47l0 100c1 26-21 47-47 47z m-271 138l218 0 0-138-218 0z m218-400l-218 0 0 138 218 0 0-138z m83 115c0-17-14-30-30-30l-37 0 0 70-250 0 0-70-41 0c-17 0-30 14-30 30l0 100c0 17 14 30 30 30l328 0c17 0 30-14 30-30z m-270-5l159 0 0-12-159 0z m0-36l159 0 0-12-159 0z m0-35l80 0 0-12-80 0z"/>
<glyph glyph-name="review" unicode="&#121;" d="M471 282c0 102-96 186-215 186-119 0-215-84-215-186 0-103 96-186 215-186 34 0 66 7 94 19l106-49-26 106c26 31 41 69 41 110z m-40-187l-79 42c-28-14-61-21-96-21-108 0-196 74-196 166 0 92 88 166 196 166 108 0 196-74 196-166 0-39-16-76-43-104z m-143 192c0-18-14-32-32-32-17 0-32 14-32 32 0 17 15 32 32 32 18 0 32-15 32-32z m92 0c0-18-15-32-32-32-18 0-32 14-32 32 0 17 14 32 32 32 17 0 32-15 32-32z m-184 0c0-18-14-32-32-32-17 0-32 14-32 32 0 17 15 32 32 32 18 0 32-15 32-32z"/>
<glyph glyph-name="save" unicode="&#122;" d="M450 387l-62 63c-7 7-17 11-27 11l-255 0c-30 0-55-25-55-55l0-300c0-30 25-55 55-55l300 0c30 0 55 25 55 55l0 255c0 10-4 19-11 26z m-279 56l170 0 0-137c0-7-5-14-13-14l-144 0c-8 0-13 7-13 14z m170-374l-170 0 0 109c0 7 5 16 13 16l144 0c8 0 13-9 13-16l0-109z m102 37c0-20-17-37-37-37l-47 0 0 109c0 17-14 33-31 33l-144 0c-17 0-31-16-31-33l0-109-47 0c-20 0-37 17-37 37l0 300c0 20 17 37 37 37l47 0 0-137c0-17 13-32 31-32l144 0c18 0 31 15 31 32l0 137 2 0c5 0 10-2 14-6l62-62c4-3 6-9 6-14z m-147 212c5 0 9 4 9 9l0 76c0 5-4 9-9 9-5 0-9-4-9-9l0-76c0-5 4-9 9-9z"/>
<glyph glyph-name="visa" unicode="&#65;" d="M217 319l-21-126 33 0 21 126z m-48 0l-32-87-3 19 0 0-11 57c0 0-2 11-16 11l-52 0 0-2c0 0 0 0 0 0 0 0 0 0 0 0 0 0 0 0 1 0 0 0 0 0 0 0 0 0 1-1 1-1 0 0 0 0 0 0 1 0 1 0 1 0 1 0 1 0 2 0 0-1 0-1 1-1 0 0 1 0 1 0 0 0 1 0 1-1 1 0 1 0 2 0 0 0 0 0 1 0 0-1 1-1 1-1 1 0 1 0 2-1 1 0 2 0 3-1 0 0 1 0 1 0 1-1 1-1 2-1 0 0 1-1 2-1 0 0 1 0 1-1 1 0 2 0 2-1 1 0 1 0 2-1 1 0 2-1 3-1 1-1 1-1 2-1 1-1 1-1 2-2l29-109 34 0 52 126z m262 0l-26 0c-13 0-16-9-16-9l-49-117 35 0 6 19 42 0 4-19 30 0z m-40-81l17 47 10-47z m-94 46c0 14 32 12 46 5l5 27c0 0-15 5-30 5-16 0-55-7-55-41 0-33 46-33 46-51 0-17-41-14-55-3l-5-28c0 0 15-7 38-7 22 0 56 11 56 43 0 33-46 36-46 50z"/>
<glyph glyph-name="user" unicode="&#66;" d="M256 249c48 0 88 40 88 88 0 48-40 87-88 87-48 0-88-39-88-87 0-48 40-88 88-88z m0 162c41 0 74-33 74-74 0-41-33-74-74-74-41 0-74 33-74 74 0 41 33 74 74 74z m156-250c-15 33-44 55-85 66l-3 1-3-1c-19-12-42-18-65-18-23 0-46 6-65 18l-3 1-3-1c-41-11-70-33-85-66-12-27-12-54-12-67l0-6 336 0 0 6c0 13 0 40-12 67z m-311-60c0 13 2 34 11 54 13 29 38 48 74 59 21-12 46-19 70-19 24 0 49 7 70 19 36-11 61-30 74-59 9-20 11-41 11-54z"/>
<glyph glyph-name="twitter" unicode="&#67;" d="M256 501c-135 0-245-110-245-245 0-135 110-245 245-245 135 0 245 110 245 245 0 135-110 245-245 245z m0-473c-126 0-228 102-228 228 0 126 102 228 228 228 126 0 228-102 228-228 0-126-102-228-228-228z m129 335c-11-7-23-11-36-14-10 11-25 18-41 18-30 0-55-25-55-56 0-5 0-9 1-13-46 2-88 25-115 58-5-8-8-17-8-28 0-19 10-36 25-46-9 0-18 3-25 7 0 0 0-1 0-1 0-27 19-50 45-55-5-1-10-2-15-2-4 0-7 1-11 1 7-22 28-38 53-38-20-15-44-24-70-24-4 0-9 0-13 0 25-15 54-25 85-25 103 0 159 85 159 159 0 3 0 5 0 8 11 7 21 17 28 28-10-4-21-7-32-8 12 7 20 18 25 31z"/>
<glyph glyph-name="tie" unicode="&#68;" d="M264 426l51 61-59-8-59 8 51-61z m-16-22l-51-322 59-57 59 57-51 322z"/>
<glyph glyph-name="star" unicode="&#69;" d="M471 304l-164 0-51 157-51-157-164 0 133-96-51-157 133 97 133-97-51 157z m-115-208l-100 73-100-73 38 118-100 73 124 0 38 118 38-118 124 0-100-73z"/>
<glyph glyph-name="scroll" unicode="&#70;" d="M256 493c-73 0-131-59-131-132l0-210c0-73 58-132 131-132 73 0 131 59 131 132l0 210c0 73-58 132-131 132z m113-342c0-63-51-113-113-113-62 0-113 50-113 113l0 210c0 63 51 113 113 113 62 0 113-50 113-113z m-113 239c-5 0-9-4-9-9 0-8 0-61 0-61 0-5 4-9 9-9 5 0 9 4 9 9 0 0 0 53 0 61 0 5-4 9-9 9z"/>
</font>
</defs>
</svg>
